<svg width="20" height="20" viewBox="0 0 20 20" fill="none" xmlns="http://www.w3.org/2000/svg">
<path fill-rule="evenodd" clip-rule="evenodd" d="M15.0612 19.9225C13.1193 19.4359 9.14381 18.0643 5.53975 14.4602C1.93572 10.8562 0.564084 6.88074 0.0775392 4.93882C-0.202066 3.82283 0.301436 2.74593 1.15518 2.13611L3.39333 0.537423C4.7029 -0.397973 6.52467 -0.0805607 7.44071 1.24262L8.84975 3.27794C9.44787 4.1419 9.24158 5.32603 8.3865 5.9368L7.26297 6.73933C7.43301 7.38976 7.96188 8.72549 9.61822 10.3818C11.2745 12.0381 12.6103 12.567 13.2607 12.737L14.0632 11.6134C14.674 10.7585 15.8581 10.5521 16.7221 11.1502L18.7574 12.5593C20.0806 13.4754 20.398 15.2971 19.4625 16.6066L17.8639 18.8448C17.254 19.6986 16.1772 20.2021 15.0612 19.9225ZM6.89924 13.1008C10.1767 16.3782 13.7935 17.6228 15.5284 18.0575C15.782 18.121 16.0886 18.0224 16.2994 17.7273L17.8981 15.4891C18.2099 15.0527 18.1041 14.4454 17.663 14.14L15.6277 12.731L14.7665 13.9367C14.4145 14.4295 13.7636 14.8159 13.0058 14.6524C12.0598 14.4483 10.3112 13.7938 8.25874 11.7413C6.20626 9.68881 5.5517 7.9402 5.3476 6.99428C5.18408 6.23639 5.57056 5.5855 6.06331 5.23353L7.26902 4.3723L5.85995 2.33698C5.5546 1.89592 4.94735 1.79012 4.51083 2.10192L2.27268 3.7006C1.97752 3.91142 1.87897 4.21798 1.94251 4.47156C2.37719 6.20647 3.62179 9.8233 6.89924 13.1008Z" fill="white"/>
</svg>
